<svg width="190" height="80" viewBox="0 0 190 80" fill="none" xmlns="http://www.w3.org/2000/svg">
<g clip-path="url(#clip0)">
<path d="M29.2308 0H160.769C176.918 0 190 13.0871 190 29.2308V50.6668C190 66.8156 176.913 79.8975 160.769 79.8975H29.2308C13.0819 79.8975 0 66.8104 0 50.6668V29.2308C0 13.0871 13.0872 0 29.2308 0Z" fill="#FBE8FF"/>
<path d="M23.403 30.7485H21.4336V49.2462H23.403V30.7485Z" fill="#6C0096"/>
<path d="M41.7612 13.2488L26.1104 23.1085L27.1601 24.7748L42.811 14.9151L41.7612 13.2488Z" fill="#6C0096"/>
<path d="M25.2655 31.1213C26.1598 30.5586 26.8671 29.7434 27.2981 28.7787C27.729 27.8139 27.8642 26.7431 27.6866 25.7015C27.509 24.66 27.0265 23.6945 26.3001 22.9272C25.5737 22.1598 24.6362 21.6251 23.6059 21.3907C22.5757 21.1562 21.499 21.2325 20.5121 21.6099C19.5252 21.9873 18.6724 22.6489 18.0615 23.511C17.4506 24.3731 17.1091 25.397 17.0801 26.4532C17.0512 27.5094 17.336 28.5504 17.8987 29.4447C18.2723 30.0385 18.7592 30.5529 19.3317 30.9585C19.9041 31.3642 20.5508 31.6531 21.2349 31.8088C21.9189 31.9644 22.627 31.9839 23.3185 31.8659C24.0101 31.748 24.6717 31.495 25.2655 31.1213V31.1213ZM24.1495 29.3502C23.6062 29.6925 22.9736 29.8659 22.3317 29.8487C21.6898 29.8315 21.0674 29.6243 20.5433 29.2533C20.0191 28.8824 19.6167 28.3643 19.387 27.7647C19.1572 27.1651 19.1104 26.5108 19.2525 25.8845C19.3946 25.2583 19.7192 24.6883 20.1853 24.2466C20.6513 23.8048 21.2379 23.5112 21.8708 23.4028C22.5037 23.2944 23.1546 23.3761 23.7411 23.6376C24.3275 23.8991 24.8233 24.3286 25.1657 24.8718C25.6246 25.6005 25.7753 26.4816 25.5847 27.3214C25.3942 28.1612 24.8779 28.8909 24.1495 29.3502V29.3502Z" fill="#6C0096"/>
<path d="M41.1548 11.3265C41.1548 12.3829 41.468 13.4155 42.0549 14.2938C42.6418 15.1721 43.4759 15.8567 44.4518 16.2609C45.4278 16.6652 46.5016 16.7709 47.5377 16.5649C48.5737 16.3588 49.5254 15.8501 50.2723 15.1032C51.0193 14.3562 51.528 13.4045 51.734 12.3685C51.9401 11.3325 51.8344 10.2586 51.4301 9.28265C51.0259 8.30672 50.3413 7.47258 49.463 6.88571C48.5847 6.29883 47.5521 5.9856 46.4957 5.9856C45.0792 5.9856 43.7207 6.5483 42.7191 7.54992C41.7175 8.55154 41.1548 9.91003 41.1548 11.3265V11.3265ZM43.2554 11.3265C43.2554 10.6844 43.4459 10.0566 43.8026 9.52269C44.1594 8.98875 44.6665 8.57259 45.2598 8.32685C45.8531 8.0811 46.5059 8.0168 47.1357 8.14208C47.7655 8.26736 48.3441 8.57659 48.7981 9.03067C49.2522 9.48475 49.5615 10.0633 49.6867 10.6931C49.812 11.3229 49.7477 11.9758 49.502 12.5691C49.2562 13.1623 48.8401 13.6694 48.3061 14.0262C47.7722 14.383 47.1445 14.5734 46.5023 14.5734C46.0754 14.5742 45.6524 14.4909 45.2578 14.3281C44.8631 14.1653 44.5044 13.9263 44.2022 13.6247C43.9 13.3231 43.6602 12.9649 43.4967 12.5706C43.3331 12.1762 43.2489 11.7535 43.2489 11.3265H43.2554Z" fill="#6C0096"/>
<path d="M51.2746 13.1713L50.2324 14.8423L66.1217 24.7518L67.1639 23.0807L51.2746 13.1713Z" fill="#6C0096"/>
<path d="M73.1386 21.8601C72.2133 21.3502 71.1577 21.1261 70.1051 21.2162C69.0525 21.3064 68.0503 21.7066 67.2252 22.3663C66.4002 23.0261 65.7892 23.9157 65.4698 24.9226C65.1503 25.9296 65.1367 27.0087 65.4305 28.0234C65.7244 29.0381 66.3126 29.9429 67.1207 30.6233C67.9288 31.3037 68.9205 31.7292 69.9705 31.846C71.0204 31.9627 72.0814 31.7654 73.0193 31.2791C73.9571 30.7928 74.7297 30.0394 75.2392 29.114C75.5776 28.4997 75.7917 27.8249 75.8693 27.1279C75.9469 26.4309 75.8864 25.7255 75.6914 25.0519C75.4963 24.3783 75.1705 23.7497 74.7324 23.2021C74.2944 22.6544 73.7528 22.1984 73.1386 21.8601V21.8601ZM72.1289 23.6982C72.6907 24.0083 73.1481 24.4779 73.4431 25.0478C73.7382 25.6176 73.8578 26.2621 73.7868 26.8999C73.7158 27.5377 73.4574 28.1401 73.0443 28.6312C72.6311 29.1222 72.0817 29.4798 71.4654 29.6587C70.8492 29.8377 70.1937 29.8301 69.5818 29.6367C68.9699 29.4434 68.429 29.0731 68.0274 28.5726C67.6258 28.0721 67.3816 27.4638 67.3255 26.8245C67.2694 26.1853 67.404 25.5437 67.7123 24.9809C67.9173 24.6068 68.1941 24.2768 68.5267 24.0097C68.8594 23.7426 69.2414 23.5437 69.651 23.4243C70.0605 23.305 70.4896 23.2675 70.9136 23.314C71.3377 23.3606 71.7484 23.4902 72.1224 23.6955L72.1289 23.6982Z" fill="#6C0096"/>
<path d="M27.1737 55.1195L26.124 56.7858L41.7749 66.6455L42.8246 64.9792L27.1737 55.1195Z" fill="#6C0096"/>
<path d="M17.9147 50.4515C17.3514 51.3455 17.0659 52.3864 17.0942 53.4427C17.1226 54.4989 17.4635 55.5231 18.0739 56.3856C18.6844 57.248 19.5369 57.9101 20.5236 58.2881C21.5103 58.6661 22.587 58.7429 23.6174 58.509C24.6478 58.275 25.5857 57.7407 26.3125 56.9737C27.0393 56.2067 27.5222 55.2414 27.7004 54.1998C27.8785 53.1583 27.7437 52.0874 27.3132 51.1224C26.8826 50.1575 26.1755 49.3419 25.2814 48.7788C24.0827 48.0239 22.6332 47.776 21.2517 48.0897C19.8702 48.4033 18.6698 49.2529 17.9147 50.4515V50.4515ZM25.1816 55.0296C24.8387 55.5722 24.3426 56.001 23.756 56.2618C23.1695 56.5226 22.5188 56.6037 21.8862 56.4948C21.2535 56.3859 20.6674 56.0919 20.2018 55.65C19.7362 55.2081 19.4121 54.6381 19.2703 54.012C19.1285 53.3859 19.1755 52.7319 19.4054 52.1325C19.6352 51.5332 20.0376 51.0154 20.5616 50.6446C21.0856 50.2738 21.7077 50.0667 22.3494 50.0493C22.9911 50.032 23.6235 50.2053 24.1668 50.5473C24.5276 50.7746 24.8401 51.0708 25.0864 51.4189C25.3327 51.767 25.508 52.1603 25.6023 52.5762C25.6965 52.9921 25.7079 53.4225 25.6357 53.8428C25.5635 54.2631 25.4092 54.665 25.1816 55.0257V55.0296Z" fill="#6C0096"/>
<path d="M46.5114 73.9159C47.5675 73.9159 48.5999 73.6028 49.4781 73.0161C50.3563 72.4295 51.0408 71.5957 51.4452 70.62C51.8496 69.6444 51.9557 68.5708 51.7501 67.5349C51.5444 66.499 51.0362 65.5473 50.2898 64.8002C49.5434 64.053 48.5922 63.544 47.5565 63.3373C46.5208 63.1306 45.4471 63.2356 44.4711 63.6391C43.4951 64.0425 42.6606 64.7262 42.0731 65.6039C41.4856 66.4815 41.1715 67.5136 41.1704 68.5697C41.1697 69.2715 41.3074 69.9666 41.5755 70.6152C41.8436 71.2638 42.2369 71.8532 42.7329 72.3497C43.2289 72.8462 43.8179 73.2401 44.4663 73.5088C45.1146 73.7776 45.8095 73.9159 46.5114 73.9159V73.9159ZM46.5114 65.3268C47.1537 65.3268 47.7816 65.5173 48.3156 65.8743C48.8496 66.2312 49.2658 66.7385 49.5114 67.332C49.7571 67.9255 49.8211 68.5786 49.6955 69.2085C49.5699 69.8384 49.2603 70.417 48.8058 70.8709C48.3514 71.3248 47.7724 71.6337 47.1424 71.7586C46.5123 71.8834 45.8593 71.8185 45.2661 71.5722C44.6729 71.3258 44.1661 70.9091 43.8098 70.3746C43.4535 69.8402 43.2637 69.212 43.2645 68.5697C43.2656 67.7093 43.6081 66.8844 44.2169 66.2764C44.8257 65.6683 45.6509 65.3268 46.5114 65.3268V65.3268Z" fill="#6C0096"/>
<path d="M66.1422 55.1382L50.2529 65.0477L51.2951 66.7188L67.1844 56.8093L66.1422 55.1382Z" fill="#6C0096"/>
<path d="M75.2524 50.781C74.7428 49.8556 73.9703 49.1021 73.0324 48.6158C72.0946 48.1295 71.0336 47.9322 69.9837 48.0489C68.9337 48.1657 67.942 48.5912 67.1338 49.2716C66.3257 49.952 65.7376 50.8568 65.4437 51.8715C65.1498 52.8862 65.1635 53.9653 65.483 54.9723C65.8024 55.9793 66.4133 56.8689 67.2384 57.5286C68.0635 58.1883 69.0657 58.5886 70.1183 58.6787C71.1709 58.7688 72.2265 58.5447 73.1517 58.0348C74.392 57.3513 75.3101 56.2031 75.704 54.8428C76.098 53.4825 75.9355 52.0215 75.2524 50.781V50.781ZM67.7281 54.9153C67.4186 54.3527 67.283 53.7109 67.3383 53.0711C67.3936 52.4314 67.6373 51.8224 68.0387 51.3211C68.4401 50.8199 68.9811 50.449 69.5933 50.2552C70.2055 50.0614 70.8615 50.0536 71.4781 50.2326C72.0948 50.4116 72.6446 50.7694 73.0579 51.2608C73.4712 51.7523 73.7295 52.3553 73.8002 52.9935C73.8708 53.6317 73.7506 54.2766 73.4548 54.8465C73.159 55.4165 72.7008 55.8859 72.1382 56.1954C71.7645 56.401 71.3541 56.5309 70.9303 56.5778C70.5064 56.6248 70.0775 56.5877 69.668 56.4688C69.2584 56.35 68.8763 56.1516 68.5435 55.885C68.2106 55.6185 67.9336 55.289 67.7281 54.9153V54.9153Z" fill="#6C0096"/>
<path d="M42.8101 32.1376V31.0873H50.1624V32.1376L46.7488 32.5315H46.2236L42.8101 32.1376ZM46.7488 47.2362L50.1624 47.63V48.6804H42.8101V47.63L46.2236 47.2362H46.7488ZM45.3046 39.2274C45.3046 36.5228 45.3046 33.7919 45.2258 31.0873H47.7466C47.6678 33.7394 47.6678 36.4702 47.6678 39.2274V40.5403C47.6678 43.2449 47.6678 45.9758 47.7466 48.6804H45.2258C45.3046 46.0283 45.3046 43.2974 45.3046 40.5403V39.2274Z" fill="#6C0096"/>
<path d="M90.8145 45.6868V47.131L89.1865 47.4986L89.8429 43.6124H91.4447L91.3397 47.4199C89.6854 48.3126 87.8736 48.6803 86.0355 48.6803C80.7313 48.6803 77.1602 44.8466 77.1602 39.4899C77.1602 34.2382 80.8888 30.2994 86.0092 30.2994C87.4272 30.2994 89.2915 30.5358 91.0771 31.5598L91.1821 35.3673H89.5803L88.9239 31.4811L90.5519 31.8487V33.4504C89.0552 32.0587 87.5847 31.6124 86.3243 31.6124C82.7794 31.6124 79.9173 34.3695 79.9173 39.4899C79.9173 44.6102 82.4906 47.3674 86.1405 47.3674C87.8474 47.3731 89.502 46.7782 90.8145 45.6868V45.6868Z" fill="#6C0096"/>
<path d="M95.3269 31.2185L93.1475 30.9559V30.0368L97.0862 28.8552L97.4538 29.0653L97.3488 32.794V38.3607L97.4276 38.7021V42.7721C97.4276 44.4001 97.4538 47.1048 97.5063 48.2864H95.2481C95.3006 47.1048 95.3269 44.4001 95.3269 42.7721V31.2185ZM99.3182 47.3673V48.2864H93.2788V47.3673L96.1672 46.8422H96.6923L99.3182 47.3673ZM105.515 40.3564V42.7721C105.515 44.4527 105.541 47.1048 105.594 48.2864H103.336C103.388 47.1048 103.414 44.4527 103.414 42.7721V40.5664C103.414 38.1244 102.784 37.3367 101.209 37.3367C99.8958 37.3367 98.8193 37.8093 97.3225 39.1485H96.7711V37.9669H98.1103L96.9287 38.4395C98.1628 36.7852 100.316 35.4986 102.18 35.4986C104.442 35.4986 105.519 36.8903 105.519 40.3564H105.515ZM104.806 46.8422L107.432 47.3673V48.2864H101.393V47.3673L104.281 46.8422H104.806Z" fill="#6C0096"/>
<path d="M120.301 40.514C120.309 41.0104 120.248 41.5054 120.118 41.9845H110.426V40.8816H116.675C117.936 40.8816 118.224 40.2777 118.224 39.5424C118.211 38.7786 117.897 38.0506 117.352 37.5153C116.807 36.98 116.074 36.6802 115.31 36.6803C113.629 36.6803 111.686 38.0982 111.686 41.8532C111.686 45.188 113.367 46.9736 115.992 46.9736C117.673 46.9736 118.723 46.2121 119.669 45.1092L120.273 45.5819C119.327 47.4462 117.647 48.6278 115.257 48.6278C111.739 48.6278 109.454 46.1858 109.454 42.1945C109.454 38.177 112.185 35.4987 115.441 35.4987C118.148 35.4987 120.301 37.3367 120.301 40.514Z" fill="#6C0096"/>
<path d="M124.634 48.2865C124.686 47.1048 124.713 44.4002 124.713 42.7722V41.5381C124.713 40.0939 124.686 39.2799 124.634 38.2295L122.533 37.9932V37.0742L126.104 35.4987L126.498 35.7612L126.813 38.8072V42.7722C126.813 44.4002 126.84 47.1048 126.892 48.2865H124.634ZM128.73 47.3674V48.2865H122.691V47.3674L125.579 46.8423H126.104L128.73 47.3674ZM134.691 40.3565V42.7722C134.691 44.4528 134.717 47.1048 134.77 48.2865H132.511C132.564 47.1048 132.59 44.4528 132.59 42.7722V40.5665C132.59 38.1245 131.96 37.3367 130.384 37.3367C129.098 37.3367 128.074 37.8619 126.603 39.1486H126.049V37.9669H127.388L126.259 38.4396C127.493 36.7853 129.515 35.4987 131.353 35.4987C133.614 35.4987 134.691 36.8903 134.691 40.3565V40.3565ZM133.982 46.8423L136.608 47.3674V48.2865H130.568V47.3674L133.457 46.8423H133.982ZM142.568 40.0676V42.7722C142.568 44.4528 142.595 47.1048 142.647 48.2865H140.389C140.441 47.1048 140.468 44.4528 140.468 42.7722V40.514C140.468 38.0457 139.785 37.3367 138.236 37.3367C137.054 37.3367 135.951 37.8094 134.481 39.1486H133.851V38.2295H135.268L134.061 38.4396C135.426 36.4965 137.369 35.4987 139.234 35.4987C141.334 35.4987 142.568 36.8116 142.568 40.0676V40.0676ZM141.859 46.8423L144.485 47.3674V48.2865H138.446V47.3674L141.334 46.8423H141.859Z" fill="#6C0096"/>
<path d="M148.187 48.2864C148.24 47.1048 148.266 44.4002 148.266 42.7722V41.5381C148.266 40.0938 148.24 39.2798 148.187 38.2295L146.034 37.9932V37.0741L149.999 35.4986L150.393 35.7612L150.314 39.3061V42.7722C150.314 44.4002 150.341 47.1048 150.393 48.2864H148.187ZM152.231 47.3674V48.2864H146.192V47.3674L149.08 46.8422H149.605L152.231 47.3674ZM147.531 30.8772C147.531 29.8794 148.292 29.2229 149.264 29.2229C150.236 29.2229 150.997 29.8794 150.997 30.8772C150.997 31.8487 150.236 32.5315 149.264 32.5315C148.292 32.5315 147.531 31.8487 147.531 30.8772V30.8772Z" fill="#6C0096"/>
<path d="M154.437 47.63L154.332 44.7679H155.721L156.43 47.8663L155.143 47.2624V46.3696C156.062 47.0786 157.06 47.4462 158.373 47.4462C160.395 47.4462 161.34 46.6322 161.34 45.4243C161.34 44.2952 160.553 43.7175 158.898 43.1136L157.69 42.6672C155.774 41.9582 154.513 40.9341 154.513 39.1486C154.513 37.258 156.115 35.4987 159.03 35.4987C160.448 35.4987 161.55 35.8925 162.68 36.5753L162.575 39.2273H161.262L160.736 36.5753L161.682 36.9954V37.6781C160.841 37.0216 159.949 36.6803 159.003 36.6803C157.375 36.6803 156.535 37.3893 156.535 38.4921C156.535 39.6737 157.192 40.1201 158.977 40.7766L159.765 41.0654C162.391 42.037 163.389 43.2711 163.389 44.8991C163.389 46.8423 161.682 48.6278 158.321 48.6278C156.853 48.6278 155.721 48.2865 154.437 47.63Z" fill="#6C0096"/>
<path d="M170.455 47.3148C171.032 47.3148 171.557 47.0785 172.24 46.5796L172.844 47.2886C172.188 48.1288 171.111 48.6277 169.798 48.6277C167.986 48.6277 166.857 47.6824 166.857 45.6605C166.857 45.0303 166.883 44.4789 166.883 43.4548V37.2054H164.678V36.0763L167.934 35.6561L166.883 36.5226L167.671 32.2688H169.194L168.984 36.864V45.3717C168.981 46.7371 169.562 47.3148 170.455 47.3148ZM172.608 35.8399V37.2054H167.931V35.8399H172.608Z" fill="#6C0096"/>
<path d="M28.8682 30.163C28.7638 30.1627 28.6615 30.1918 28.573 30.2471C28.4845 30.3024 28.4134 30.3815 28.3679 30.4754C28.14 30.9557 27.7974 31.3725 27.3704 31.6891C26.9434 32.0058 26.4451 32.2125 25.9193 32.2912C25.7862 32.3098 25.6641 32.3758 25.5756 32.4771C25.4871 32.5784 25.4381 32.7081 25.4375 32.8426V33.8313C25.4371 33.9092 25.4531 33.9863 25.4845 34.0577C25.5158 34.129 25.5619 34.193 25.6196 34.2454C25.6773 34.2977 25.7454 34.3374 25.8194 34.3617C25.8935 34.3861 25.9718 34.3946 26.0493 34.3866C27.0344 34.2736 27.9684 33.8882 28.7467 33.2739C29.525 32.6596 30.1167 31.8406 30.4555 30.9087C30.4856 30.8246 30.4951 30.7345 30.483 30.6459C30.471 30.5574 30.4378 30.4731 30.3863 30.4001C30.3348 30.327 30.2665 30.2675 30.1871 30.2265C30.1077 30.1854 30.0197 30.1641 29.9303 30.1643H28.8695L28.8682 30.163Z" fill="#6C0096"/>
<path d="M26.7429 32.2925H26.0996C26.0123 32.2916 25.9257 32.3082 25.8448 32.3412C25.764 32.3742 25.6905 32.423 25.6288 32.4848C25.5671 32.5465 25.5182 32.6199 25.4852 32.7008C25.4522 32.7816 25.4357 32.8682 25.4366 32.9555V46.795C25.4357 46.8823 25.4522 46.9689 25.4852 47.0497C25.5182 47.1306 25.5671 47.204 25.6288 47.2658C25.6905 47.3275 25.764 47.3763 25.8448 47.4093C25.9257 47.4423 26.0123 47.4589 26.0996 47.458H26.7429C26.8302 47.4589 26.9168 47.4423 26.9977 47.4093C27.0785 47.3763 27.1519 47.3275 27.2137 47.2658C27.2754 47.204 27.3242 47.1306 27.3572 47.0497C27.3903 46.9689 27.4068 46.8823 27.4059 46.795V32.9555C27.4068 32.8682 27.3903 32.7816 27.3572 32.7008C27.3242 32.6199 27.2754 32.5465 27.2137 32.4848C27.1519 32.423 27.0785 32.3742 26.9977 32.3412C26.9168 32.3082 26.8302 32.2916 26.7429 32.2925V32.2925Z" fill="#6C0096"/>
<path d="M28.7622 49.5048H30.0029C30.0799 49.5051 30.1558 49.4868 30.2242 49.4516C30.2926 49.4163 30.3516 49.3651 30.396 49.3022C30.4404 49.2394 30.4691 49.1667 30.4795 49.0905C30.4899 49.0142 30.4818 48.9366 30.4559 48.8641C30.1046 47.934 29.5006 47.1204 28.712 46.5149C27.9233 45.9095 26.9813 45.5363 25.992 45.4374C25.9253 45.4312 25.8581 45.4389 25.7947 45.4602C25.7312 45.4815 25.6729 45.5158 25.6234 45.5609C25.574 45.606 25.5345 45.6609 25.5075 45.7222C25.4806 45.7835 25.4667 45.8497 25.4668 45.9166V47.0575C25.4665 47.1735 25.5084 47.2856 25.5848 47.3728C25.6612 47.4601 25.7667 47.5165 25.8817 47.5315C26.3985 47.5977 26.8917 47.7874 27.3197 48.0845C27.7478 48.3815 28.098 48.7773 28.3408 49.2383C28.3803 49.3167 28.4403 49.383 28.5146 49.4299C28.5888 49.4769 28.6744 49.5028 28.7622 49.5048V49.5048Z" fill="#6C0096"/>
<path d="M63.5543 28.6767C63.6116 28.5856 63.6419 28.4803 63.6419 28.3727C63.6419 28.2652 63.6116 28.1599 63.5543 28.0688C63.2714 27.6232 63.1013 27.1153 63.0588 26.5892C63.0162 26.063 63.1025 25.5344 63.3101 25.0491C63.3659 24.9224 63.3745 24.7799 63.3343 24.6474C63.2941 24.5149 63.2077 24.4013 63.0909 24.327L62.2821 23.8228C62.2124 23.7799 62.1343 23.7523 62.0531 23.7418C61.9719 23.7313 61.8894 23.7382 61.811 23.7621C61.7327 23.7859 61.6603 23.8261 61.5987 23.8801C61.5371 23.934 61.4877 24.0004 61.4537 24.0749C61.0404 24.9638 60.8799 25.9493 60.9896 26.9233C61.0994 27.8974 61.4753 28.8225 62.076 29.597C62.1332 29.6692 62.2069 29.7266 62.2909 29.7643C62.3749 29.802 62.4667 29.8189 62.5587 29.8137C62.6506 29.8084 62.7399 29.7811 62.8191 29.734C62.8982 29.6869 62.9649 29.6215 63.0134 29.5432L63.5543 28.6767Z" fill="#6C0096"/>
<path d="M62.898 25.7227L63.2197 25.2067C63.3148 25.0534 63.3453 24.8687 63.3045 24.6929C63.2636 24.5172 63.1548 24.3649 63.0017 24.2693L51.2879 16.9642C51.1346 16.869 50.9498 16.8385 50.7741 16.8794C50.5984 16.9203 50.446 17.0291 50.3505 17.1822L50.0288 17.6981C49.9336 17.8514 49.9031 18.0362 49.944 18.2119C49.9848 18.3876 50.0937 18.54 50.2467 18.6356L61.9606 25.9406C62.1139 26.0358 62.2986 26.0663 62.4744 26.0255C62.6501 25.9846 62.8024 25.8757 62.898 25.7227Z" fill="#6C0096"/>
<path d="M47.2057 18.348L46.5689 19.3695C46.5261 19.4386 46.5009 19.5171 46.4953 19.5982C46.4898 19.6793 46.5041 19.7605 46.5371 19.8348C46.5701 19.9091 46.6208 19.9742 46.6847 20.0244C46.7486 20.0747 46.8238 20.1085 46.9037 20.1231C47.8702 20.307 48.8687 20.2204 49.7892 19.8729C50.7096 19.5254 51.5161 18.9305 52.12 18.1537C52.1624 18.0986 52.1928 18.0353 52.2092 17.9678C52.2256 17.9002 52.2277 17.83 52.2154 17.7616C52.203 17.6932 52.1764 17.6281 52.1374 17.5706C52.0983 17.5131 52.0477 17.4644 51.9887 17.4277L51.0486 16.8408C50.9466 16.7773 50.8251 16.753 50.7066 16.7723C50.588 16.7916 50.4805 16.8533 50.404 16.9458C50.0749 17.3444 49.6554 17.6586 49.1804 17.8623C48.7054 18.066 48.1887 18.1533 47.6731 18.117C47.5815 18.1089 47.4895 18.1262 47.407 18.167C47.3246 18.2077 47.2549 18.2704 47.2057 18.348V18.348Z" fill="#6C0096"/>
<path d="M45.6043 61.2422C45.6579 61.3356 45.7366 61.412 45.8316 61.4626C45.9266 61.5132 46.0339 61.536 46.1413 61.5284C46.667 61.4888 47.1945 61.5778 47.6781 61.7878C48.1617 61.9978 48.5869 62.3225 48.9168 62.7337C49.0021 62.8429 49.1238 62.9179 49.2597 62.9449C49.3956 62.9719 49.5368 62.9491 49.6573 62.8807L50.4831 62.4041C50.5539 62.3627 50.615 62.3068 50.6625 62.24C50.7101 62.1732 50.7428 62.097 50.7587 62.0166C50.7746 61.9362 50.7732 61.8533 50.7547 61.7734C50.7362 61.6936 50.7009 61.6186 50.6512 61.5534C50.0621 60.7699 49.2685 60.1639 48.3576 59.8019C47.4467 59.4399 46.4536 59.3359 45.4875 59.5013C45.3967 59.5177 45.3112 59.5557 45.2383 59.6121C45.1653 59.6686 45.1071 59.7417 45.0684 59.8255C45.0298 59.9092 45.0119 60.001 45.0163 60.0932C45.0207 60.1853 45.0472 60.275 45.0936 60.3547L45.6043 61.2422Z" fill="#6C0096"/>
<path d="M48.5239 62.0458L48.8272 62.571C48.8718 62.6484 48.9313 62.7163 49.0021 62.7708C49.073 62.8253 49.1539 62.8652 49.2403 62.8884C49.3266 62.9116 49.4166 62.9175 49.5053 62.9058C49.5939 62.8942 49.6793 62.8651 49.7567 62.8204L61.7161 55.9289C61.7936 55.8843 61.8615 55.8249 61.916 55.754C61.9704 55.6831 62.0104 55.6022 62.0335 55.5159C62.0567 55.4295 62.0626 55.3395 62.051 55.2509C62.0393 55.1622 62.0103 55.0768 61.9656 54.9994L61.6623 54.4742C61.6177 54.3968 61.5582 54.3289 61.4874 54.2744C61.4165 54.2199 61.3356 54.18 61.2492 54.1568C61.1629 54.1336 61.0728 54.1277 60.9842 54.1394C60.8956 54.151 60.8101 54.18 60.7327 54.2248L48.7708 61.1176C48.6151 61.2081 48.5017 61.3567 48.4555 61.5307C48.4092 61.7047 48.4338 61.8899 48.5239 62.0458V62.0458Z" fill="#6C0096"/>
<path d="M62.4188 51.6829L61.8175 50.6325C61.7765 50.5624 61.719 50.5032 61.65 50.4603C61.581 50.4174 61.5025 50.3919 61.4215 50.386C61.3404 50.3802 61.2591 50.3942 61.1847 50.4269C61.1103 50.4596 61.0449 50.5099 60.9943 50.5734C60.3748 51.3401 59.9794 52.2631 59.852 53.2405C59.7245 54.2179 59.87 55.2115 60.2722 56.1113C60.301 56.1745 60.3426 56.2311 60.3945 56.2772C60.4465 56.3234 60.5075 56.3581 60.5736 56.3793C60.6398 56.4004 60.7097 56.4075 60.7787 56.4C60.8478 56.3925 60.9145 56.3707 60.9746 56.3358L61.933 55.7831C62.0372 55.7231 62.116 55.6273 62.1549 55.5136C62.1937 55.3999 62.19 55.2759 62.1444 55.1647C61.9476 54.6867 61.868 54.1687 61.9121 53.6537C61.9561 53.1387 62.1227 52.6417 62.3978 52.2041C62.4484 52.1273 62.477 52.0382 62.4807 51.9464C62.4844 51.8545 62.463 51.7634 62.4188 51.6829Z" fill="#6C0096"/>
<path d="M71.5578 29.7888H69.5884V48.2865H71.5578V29.7888Z" fill="#6C0096"/>
</g>
<defs>
<clipPath id="clip0">
<rect width="190" height="79.8975" fill="white"/>
</clipPath>
</defs>
</svg>
