<?xml version="1.0" encoding="utf-8"?>
<!-- Generator: Adobe Illustrator 24.3.0, SVG Export Plug-In . SVG Version: 6.00 Build 0)  -->
<svg version="1.1" id="Слой_1" xmlns="http://www.w3.org/2000/svg" xmlns:xlink="http://www.w3.org/1999/xlink" x="0px" y="0px"
	 viewBox="0 0 512 512" style="enable-background:new 0 0 512 512;" xml:space="preserve">
<style type="text/css">
	.st0{fill:#007DC9;}
</style>
<path class="st0" d="M359.8,225.7l-149-81.5c-8.6-4.7-18.7-4.5-27.1,0.5c-8.4,5-13.4,13.8-13.4,23.6v161.5c0,9.7,5,18.4,13.3,23.4
	c4.3,2.6,9.2,4,14.1,4c4.5,0,8.8-1.1,12.9-3.3l149-80.1c8.8-4.7,14.4-14,14.4-24C374,239.8,368.6,230.6,359.8,225.7z M209.7,309.5
	V188.7l111.3,61L209.7,309.5z"/>
<path class="st0" d="M588.1,121v-0.3c-0.5-5.4-6.3-53.7-29.8-78.2c-27.1-29-57.8-32.4-72.6-34.1c-1.2-0.1-2.4-0.3-3.3-0.4l-1.2-0.1
	C392,1.4,257.4,0.5,256.1,0.5H256h-0.1c-1.3,0-135.9,0.9-225.9,7.4L28.8,8c-0.9,0.1-2,0.3-3.2,0.4c-14.6,1.7-45,5.1-72.3,35.2
	c-22.4,24.2-28.8,71.5-29.5,76.8l-0.1,0.7c-0.1,2.2-4.9,56.1-4.9,110.1v50.4c0,54,4.7,107.7,5,110v0.4c0.5,5.4,6.2,52.7,29.6,77.3
	c25.6,27.9,57.8,31.6,75.1,33.6c2.8,0.3,5.1,0.5,6.7,0.9l1.6,0.3c51.5,4.9,212.8,7.4,219.7,7.4h0.3h0.3c1.3,0,135.9-0.9,225.1-7.4
	l1.2-0.1c1.2-0.1,2.4-0.3,3.8-0.4c14.5-1.6,44.8-4.7,71.6-34.2c22.4-24.2,28.8-71.5,29.5-76.8l0.1-0.7c0.3-2.2,5-56,5-110v-50.4
	C593.1,177.1,588.4,123.3,588.1,121z M553.6,281.6c0,49.9-4.3,101.4-4.7,106.2c-1.7,13-8.4,42.9-19.4,54.8
	c-16.9,18.4-34,20.3-46.6,21.6c-1.6,0.1-2.9,0.3-4.2,0.5c-86.3,6.2-215.7,7.2-221.8,7.2c-6.7-0.1-165.7-2.5-215.6-7.1
	c-2.5-0.4-5.3-0.8-8.2-1.1c-14.8-1.7-35-4-50.6-21.1l-0.4-0.4c-10.7-11.2-17.4-39.1-19-54.1c-0.3-3.6-4.7-55.6-4.7-106.3v-50.4
	c0-49.9,4.3-101.3,4.7-106.2c2-15.3,9-43.5,19.4-54.8c17.3-19.1,35.6-21.2,47.7-22.5c1.2-0.1,2.2-0.3,3.2-0.4
	c87.5-6.3,218-7.2,222.6-7.2c4.7,0,135.1,0.9,221.8,7.2c1.1,0.1,2.2,0.3,3.4,0.4c12.4,1.4,31.2,3.6,48.3,21.9l0.1,0.1
	c10.7,11.2,17.4,39.6,19,55.1c0.3,3.4,4.7,55.6,4.7,106.3v50.3H553.6z"/>
</svg>
