<?xml version="1.0" encoding="utf-8"?>
<!-- Generator: Adobe Illustrator 24.3.0, SVG Export Plug-In . SVG Version: 6.00 Build 0)  -->
<svg version="1.1" id="Слой_1" xmlns="http://www.w3.org/2000/svg" xmlns:xlink="http://www.w3.org/1999/xlink" x="0px" y="0px"
	 viewBox="0 0 674.6 511.5" style="enable-background:new 0 0 674.6 511.5;" xml:space="preserve">
<style type="text/css">
	.st0{fill:#007DC9;}
</style>
<path class="st0" d="M441,225.2l-149-81.5c-8.6-4.7-18.7-4.5-27.1,0.5c-8.4,5-13.4,13.8-13.4,23.6v161.5c0,9.7,5,18.4,13.3,23.4
	c4.3,2.6,9.2,4,14.1,4c4.5,0,8.8-1.1,12.9-3.3l149-80.1c8.8-4.7,14.4-14,14.4-24C455.2,239.3,449.8,230.1,441,225.2z M290.9,309
	V188.2l111.3,61L290.9,309z"/>
<path class="st0" d="M669.3,120.5v-0.3c-0.5-5.4-6.3-53.7-29.8-78.2C612.4,13,581.8,9.6,567,7.9c-1.2-0.1-2.4-0.3-3.3-0.4l-1.2-0.1
	C473.2,0.9,338.6,0,337.3,0h-0.1H337c-1.3,0-135.9,0.9-225.9,7.4L110,7.5c-0.9,0.1-2,0.3-3.2,0.4c-14.6,1.7-45,5.1-72.3,35.2
	C12.1,67.3,5.7,114.6,5,119.9l-0.1,0.7C4.7,122.8,0,176.6,0,230.6v50.4c0,54,4.7,107.7,5,110v0.4c0.5,5.4,6.2,52.7,29.6,77.3
	c25.6,27.9,57.8,31.6,75.1,33.6c2.8,0.3,5.1,0.5,6.7,0.9l1.6,0.3c51.5,4.9,212.8,7.4,219.7,7.4h0.3h0.3c1.3,0,135.9-0.9,225.1-7.4
	l1.2-0.1c1.2-0.1,2.4-0.3,3.8-0.4c14.5-1.6,44.8-4.7,71.6-34.2c22.4-24.2,28.8-71.5,29.5-76.8l0.1-0.7c0.3-2.2,5-56,5-110v-50.4
	C674.4,176.6,669.6,122.8,669.3,120.5z M634.8,281.1c0,49.9-4.3,101.4-4.7,106.2c-1.7,13-8.4,42.9-19.4,54.8
	c-16.9,18.4-34,20.3-46.6,21.6c-1.6,0.1-2.9,0.3-4.2,0.5c-86.3,6.2-215.7,7.2-221.8,7.2c-6.7-0.1-165.7-2.5-215.6-7.1
	c-2.5-0.4-5.3-0.8-8.2-1.1c-14.8-1.7-35-4-50.6-21.1l-0.4-0.4c-10.7-11.2-17.4-39.1-19-54.1c-0.3-3.6-4.7-55.6-4.7-106.3v-50.4
	c0-49.9,4.3-101.3,4.7-106.2c2-15.3,9-43.5,19.4-54.8C81,50.8,99.3,48.7,111.4,47.4c1.2-0.1,2.2-0.3,3.2-0.4
	c87.5-6.3,218-7.2,222.6-7.2c4.7,0,135.1,0.9,221.8,7.2c1.1,0.1,2.2,0.3,3.4,0.4c12.4,1.4,31.2,3.6,48.3,21.9l0.1,0.1
	c10.7,11.2,17.4,39.6,19,55.1c0.3,3.4,4.7,55.6,4.7,106.3v50.3H634.8z"/>
</svg>
